<svg xmlns="http://www.w3.org/2000/svg" viewBox="0 0 5 5"><defs><style>.cls-1{fill:#fc0;}</style></defs><title>01d</title><g id="Layer_2" data-name="Layer 2"><g id="Layer_1-2" data-name="Layer 1"><path class="cls-1" d="M3.85,2.5A1.35,1.35,0,1,1,2.5,1.15,1.34,1.34,0,0,1,3.85,2.5Z"/><path class="cls-1" d="M2.5.93A.15.15,0,0,1,2.35.78V.15A.15.15,0,0,1,2.5,0a.14.14,0,0,1,.14.15V.78A.15.15,0,0,1,2.5.93Z"/><path class="cls-1" d="M1.28,1.43a.14.14,0,0,1-.1,0L.73.94a.15.15,0,0,1,0-.21.17.17,0,0,1,.21,0l.45.45a.17.17,0,0,1,0,.21A.15.15,0,0,1,1.28,1.43Z"/><path class="cls-1" d="M.78,2.64H.14A.14.14,0,0,1,0,2.5a.15.15,0,0,1,.14-.15H.78a.15.15,0,0,1,.15.15A.15.15,0,0,1,.78,2.64Z"/><path class="cls-1" d="M.83,4.31a.21.21,0,0,1-.1,0,.14.14,0,0,1,0-.21l.45-.45a.14.14,0,0,1,.21,0,.15.15,0,0,1,0,.2l-.45.46A.21.21,0,0,1,.83,4.31Z"/><path class="cls-1" d="M2.5,5a.15.15,0,0,1-.15-.15V4.21a.15.15,0,0,1,.15-.14.14.14,0,0,1,.14.14v.64A.15.15,0,0,1,2.5,5Z"/><path class="cls-1" d="M4.16,4.31a.18.18,0,0,1-.1,0l-.45-.46a.14.14,0,0,1,.2-.2l.45.45a.15.15,0,0,1,0,.21A.15.15,0,0,1,4.16,4.31Z"/><path class="cls-1" d="M4.85,2.64H4.21a.14.14,0,0,1-.14-.14.15.15,0,0,1,.14-.15h.64A.15.15,0,0,1,5,2.5.15.15,0,0,1,4.85,2.64Z"/><path class="cls-1" d="M3.71,1.43a.13.13,0,0,1-.1,0,.14.14,0,0,1,0-.21L4.06.73a.15.15,0,0,1,.2,0,.14.14,0,0,1,0,.21l-.45.45A.12.12,0,0,1,3.71,1.43Z"/></g></g></svg>