<svg xmlns="http://www.w3.org/2000/svg" viewBox="0 0 4.49 3.28"><defs><style>.cls-1{fill:#fff;}</style></defs><title>01n</title><g id="Layer_2" data-name="Layer 2"><g id="Layer_1-2" data-name="Layer 1"><path class="cls-1" d="M2.89,2.56A1.55,1.55,0,0,1,1.34,1,1.48,1.48,0,0,1,1.6.14a1.64,1.64,0,0,0,.66,3.14,1.66,1.66,0,0,0,1.5-1A1.62,1.62,0,0,1,2.89,2.56Z"/><polygon class="cls-1" points="3.68 0.3 3.76 0.62 3.68 0.95 3.59 0.62 3.68 0.3"/><polygon class="cls-1" points="4 0.62 3.68 0.71 3.35 0.62 3.68 0.54 4 0.62"/><polygon class="cls-1" points="4.31 0 4.35 0.19 4.31 0.37 4.26 0.19 4.31 0"/><polygon class="cls-1" points="4.49 0.19 4.31 0.23 4.12 0.19 4.31 0.14 4.49 0.19"/><polygon class="cls-1" points="0.19 0.1 0.23 0.28 0.19 0.47 0.14 0.28 0.19 0.1"/><polygon class="cls-1" points="0.37 0.28 0.19 0.33 0 0.28 0.19 0.23 0.37 0.28"/></g></g></svg>