<svg xmlns="http://www.w3.org/2000/svg" viewBox="0 0 8.01 5.37"><defs><style>.cls-1{fill:#fc0;}.cls-2{fill:#fff;}</style></defs><title>02d</title><g id="Layer_2" data-name="Layer 2"><g id="Layer_1-2" data-name="Layer 1"><path class="cls-1" d="M3.39,2.2A1.19,1.19,0,1,1,2.2,1,1.19,1.19,0,0,1,3.39,2.2Z"/><path class="cls-1" d="M2.2.82A.13.13,0,0,1,2.07.69V.13a.13.13,0,0,1,.26,0V.69A.13.13,0,0,1,2.2.82Z"/><path class="cls-1" d="M1.13,1.26a.12.12,0,0,1-.09,0L.65.83a.13.13,0,0,1,0-.18.11.11,0,0,1,.18,0L1.22,1a.13.13,0,0,1,0,.18A.1.1,0,0,1,1.13,1.26Z"/><path class="cls-1" d="M.69,2.33H.13a.13.13,0,0,1,0-.26H.69a.13.13,0,0,1,0,.26Z"/><path class="cls-1" d="M.74,3.8a.13.13,0,0,1-.09-.22L1,3.18a.13.13,0,0,1,.18.18l-.39.4A.18.18,0,0,1,.74,3.8Z"/><path class="cls-1" d="M2.2,4.4a.12.12,0,0,1-.13-.12V3.71a.13.13,0,0,1,.26,0v.57A.12.12,0,0,1,2.2,4.4Z"/><path class="cls-1" d="M3.67,3.8a.15.15,0,0,1-.09,0l-.4-.4a.13.13,0,0,1,.18-.18l.4.4a.13.13,0,0,1,0,.18A.15.15,0,0,1,3.67,3.8Z"/><path class="cls-1" d="M4.28,2.33H3.72a.13.13,0,1,1,0-.26h.56a.13.13,0,1,1,0,.26Z"/><path class="cls-1" d="M3.27,1.26a.12.12,0,0,1-.09,0,.13.13,0,0,1,0-.18l.4-.39a.11.11,0,0,1,.18,0,.13.13,0,0,1,0,.18l-.4.39A.11.11,0,0,1,3.27,1.26Z"/><path class="cls-2" d="M2.91,2.47h0a.64.64,0,0,1,0-.2.89.89,0,0,1,1.43-.71A1.44,1.44,0,0,1,5.51.94,1.43,1.43,0,0,1,6.94,2.37a1.06,1.06,0,0,1,0,.31,1.36,1.36,0,0,1-.25,2.69H2.91a1.45,1.45,0,0,1,0-2.9Z"/></g></g></svg>