<svg xmlns="http://www.w3.org/2000/svg" viewBox="0 0 7.03 5.04"><defs><style>.cls-1{fill:#fff;}.cls-2{fill:#1e689e;}</style></defs><title>02n</title><g id="Layer_2" data-name="Layer 2"><g id="Layer_1-2" data-name="Layer 1"><path class="cls-1" d="M6.44,1.65A1.07,1.07,0,0,1,5.38.59,1.08,1.08,0,0,1,5.56,0,1.12,1.12,0,1,0,7,1.47,1.08,1.08,0,0,1,6.44,1.65Z"/><path class="cls-2" d="M1.45,2.13h0a1.5,1.5,0,0,1,0-.2A.89.89,0,0,1,2.34,1a.87.87,0,0,1,.54.19A1.43,1.43,0,0,1,5.49,2a1.55,1.55,0,0,1,0,.31A1.36,1.36,0,0,1,5.2,5H1.45a1.46,1.46,0,0,1,0-2.91Z"/><polygon class="cls-1" points="0.64 0.77 0.55 1.13 0.64 1.49 0.73 1.13 0.64 0.77"/><polygon class="cls-1" points="0.28 1.13 0.64 1.22 1 1.13 0.64 1.03 0.28 1.13"/><polygon class="cls-1" points="1.05 1.51 1.01 1.69 1.05 1.88 1.1 1.69 1.05 1.51"/><polygon class="cls-1" points="0.87 1.69 1.05 1.74 1.24 1.69 1.05 1.64 0.87 1.69"/></g></g></svg>