<svg xmlns="http://www.w3.org/2000/svg" viewBox="0 0 7.6 6.74"><defs><style>.cls-1{fill:#1e689e;}.cls-2{fill:#fff;}.cls-3{fill:#b2e4ff;}</style></defs><title>09d</title><g id="Layer_2" data-name="Layer 2"><g id="Layer_1-2" data-name="Layer 1"><path class="cls-1" d="M2.49,1.53h0a1.23,1.23,0,0,1,0-.2A.89.89,0,0,1,3.38.44a.92.92,0,0,1,.54.18,1.42,1.42,0,0,1,2.6.81,1.55,1.55,0,0,1,0,.31,1.36,1.36,0,0,1-.25,2.69H2.49a1.45,1.45,0,0,1,0-2.9Z"/><path class="cls-2" d="M1.45,1.74h0a1.23,1.23,0,0,1,0-.2A.89.89,0,0,1,2.34.65a.92.92,0,0,1,.54.18,1.43,1.43,0,0,1,2.61.81,1.65,1.65,0,0,1,0,.31A1.36,1.36,0,0,1,5.2,4.64H1.45a1.45,1.45,0,0,1,0-2.9Z"/><circle class="cls-3" cx="1.33" cy="5.17" r="0.18"/><circle class="cls-3" cx="2.07" cy="5.92" r="0.18"/><circle class="cls-3" cx="3.28" cy="5.17" r="0.18"/><circle class="cls-3" cx="4.49" cy="5.61" r="0.18"/><circle class="cls-3" cx="3.1" cy="5.92" r="0.18"/><circle class="cls-3" cx="2.6" cy="6.56" r="0.18"/><circle class="cls-3" cx="3.92" cy="6.27" r="0.18"/></g></g></svg>