<svg xmlns="http://www.w3.org/2000/svg" viewBox="0 0 6.56 6.29"><defs><style>.cls-1{fill:#1e689e;}.cls-2{fill:#b2e4ff;}</style></defs><title>10n</title><g id="Layer_2" data-name="Layer 2"><g id="Layer_1-2" data-name="Layer 1"><path class="cls-1" d="M1.45,1.53h0a1.23,1.23,0,0,1,0-.2A.89.89,0,0,1,2.34.44a.92.92,0,0,1,.54.18A1.44,1.44,0,0,1,4.06,0,1.43,1.43,0,0,1,5.49,1.43a1.55,1.55,0,0,1,0,.31A1.36,1.36,0,0,1,5.2,4.43H1.45a1.45,1.45,0,0,1,0-2.9Z"/><path class="cls-2" d="M.88,5.9l-.07,0a.13.13,0,0,1-.05-.19l.48-.83a.13.13,0,0,1,.19-.05A.14.14,0,0,1,1.48,5L1,5.83A.17.17,0,0,1,.88,5.9Z"/><path class="cls-2" d="M1.52,6.29a.08.08,0,0,1-.07,0,.13.13,0,0,1-.05-.19l.71-1.22a.12.12,0,0,1,.18-.05.13.13,0,0,1,0,.19L1.63,6.22A.12.12,0,0,1,1.52,6.29Z"/><path class="cls-2" d="M3.63,5.9l-.07,0a.13.13,0,0,1-.05-.19L4,4.86A.14.14,0,1,1,4.23,5l-.48.83A.15.15,0,0,1,3.63,5.9Z"/><path class="cls-2" d="M4.44,6.09l-.07,0a.14.14,0,0,1,0-.19l.59-1a.14.14,0,0,1,.19-.05A.13.13,0,0,1,5.15,5L4.56,6A.14.14,0,0,1,4.44,6.09Z"/><path class="cls-2" d="M2.57,6.09l-.07,0a.14.14,0,0,1,0-.19l.59-1a.13.13,0,0,1,.19-.05.15.15,0,0,1,0,.19l-.6,1A.14.14,0,0,1,2.57,6.09Z"/></g></g></svg>