<svg xmlns="http://www.w3.org/2000/svg" viewBox="0 0 6.56 6.38"><defs><style>.cls-1{fill:#fff;}</style></defs><title>13d</title><g id="Layer_2" data-name="Layer 2"><g id="Layer_1-2" data-name="Layer 1"><path class="cls-1" d="M1.45,1.53h0a1.23,1.23,0,0,1,0-.2A.89.89,0,0,1,2.34.44a.92.92,0,0,1,.54.18A1.44,1.44,0,0,1,4.06,0,1.43,1.43,0,0,1,5.49,1.43a1.55,1.55,0,0,1,0,.31A1.36,1.36,0,0,1,5.2,4.43H1.45a1.45,1.45,0,0,1,0-2.9Z"/><path class="cls-1" d="M2.63,4.89a.11.11,0,0,0,0-.16h0l0,0a.12.12,0,0,0,0-.17l-.06,0a.14.14,0,0,0-.11.07l0,0-.44-.25.44-.25,0,.05a.11.11,0,0,0,.11.06.07.07,0,0,0,.06,0,.11.11,0,0,0,0-.16l0-.05h0a.12.12,0,0,0,0-.17.11.11,0,0,0-.1-.06l-.06,0h0l0,0a.14.14,0,0,0-.11-.06l-.06,0a.11.11,0,0,0,0,.16l0,.05-.43.25V3.62h.05A.13.13,0,0,0,2,3.5a.13.13,0,0,0-.13-.13H1.82a.12.12,0,0,0-.24,0H1.52a.12.12,0,0,0-.12.13.12.12,0,0,0,.12.12h.06v.52l-.46-.26,0,0a.12.12,0,0,0,0-.16.07.07,0,0,0-.06,0,.11.11,0,0,0-.1.06l0,0H.85a.11.11,0,0,0-.11.06A.14.14,0,0,0,.78,4h0l0,0a.12.12,0,0,0,.05.16l.06,0A.11.11,0,0,0,1,4.14l0,0,.45.26L1,4.62l0,0a.11.11,0,0,0-.1-.06H.81a.13.13,0,0,0-.05.17l0,0h0a.14.14,0,0,0,0,.17A.11.11,0,0,0,.85,5L.91,5h0l0,0a.13.13,0,0,0,.1.06L1.1,5a.13.13,0,0,0,0-.17l0,0,.46-.27v.5H1.52a.12.12,0,0,0-.12.13.12.12,0,0,0,.12.12h.06a.12.12,0,0,0,.24,0h.05A.13.13,0,0,0,2,5.19a.13.13,0,0,0-.13-.13H1.82v-.5l.43.25,0,.05a.12.12,0,0,0,0,.17h.06A.14.14,0,0,0,2.44,5l0,0h.07A.11.11,0,0,0,2.63,4.89Z"/><path class="cls-1" d="M5.2,4.72a.08.08,0,0,0-.08-.07h0v0A.08.08,0,0,0,5,4.54H5a.08.08,0,0,0-.07.1v.05l-.4.08.14-.4h.07a.11.11,0,0,0,.09-.06.09.09,0,0,0-.06-.11l0,0h0a.1.1,0,0,0-.06-.11h0a.08.08,0,0,0-.08.06h0l0,0h0a.08.08,0,0,0-.08.06.1.1,0,0,0,.06.11h0l-.13.4-.28-.32,0,0a.08.08,0,0,0,0-.12.09.09,0,0,0-.06,0L4,4.23l0,0H4a.11.11,0,0,0-.07,0,.07.07,0,0,0-.06,0,.08.08,0,0,0,0,.12h0l0,0a.09.09,0,0,0,0,.12.07.07,0,0,0,.06,0h0a.07.07,0,0,0,.06,0l0,0,.28.32-.42.08v0a.08.08,0,0,0-.08-.07h0a.08.08,0,0,0-.07.1V5h0a.08.08,0,0,0-.07.1.08.08,0,0,0,.08.07h0v0a.1.1,0,0,0,.09.07h0a.08.08,0,0,0,.06-.1v0L4.26,5l-.13.38H4.06A.11.11,0,0,0,4,5.42.09.09,0,0,0,4,5.53l0,0h0a.1.1,0,0,0,.06.11h0a.08.08,0,0,0,.08-.06h0l0,0h0a.08.08,0,0,0,.08-.06.1.1,0,0,0-.06-.11h0l.13-.39.26.31,0,0a.08.08,0,0,0,0,.12.09.09,0,0,0,.06,0h0s0,0,.06,0l0,0h0a.06.06,0,0,0,.06,0h0a.09.09,0,0,0,.06,0,.09.09,0,0,0,0-.12h0l0,0a.08.08,0,0,0,0-.12.07.07,0,0,0-.06,0l-.06,0,0,0-.26-.3L5,4.86v0A.09.09,0,0,0,5,5h0a.09.09,0,0,0,.06-.11v0h0A.08.08,0,0,0,5.2,4.72Z"/><path class="cls-1" d="M3.64,6.06H3.58V6a.09.09,0,0,0-.09-.09A.09.09,0,0,0,3.41,6v.06H3.35a.09.09,0,0,0-.09.08.09.09,0,0,0,.09.09h.06v.06a.09.09,0,0,0,.08.09.09.09,0,0,0,.09-.09V6.23h.06a.09.09,0,0,0,.09-.09A.09.09,0,0,0,3.64,6.06Z"/><path class="cls-1" d="M3.19,5.25H3.13V5.19a.08.08,0,0,0-.08-.08A.08.08,0,0,0,3,5.19v.06H2.9a.09.09,0,0,0-.09.09.08.08,0,0,0,.09.08H3v.06a.09.09,0,0,0,.09.09.09.09,0,0,0,.08-.09V5.42h.06a.08.08,0,0,0,.09-.08A.09.09,0,0,0,3.19,5.25Z"/><path class="cls-1" d="M2.43,5.75H2.37V5.69a.09.09,0,0,0-.08-.09.09.09,0,0,0-.09.09v.06H2.14a.09.09,0,0,0-.09.09.09.09,0,0,0,.09.08H2.2V6a.09.09,0,0,0,.09.09A.09.09,0,0,0,2.37,6V5.92h.06a.09.09,0,0,0,.09-.08A.09.09,0,0,0,2.43,5.75Z"/></g></g></svg>