<svg xmlns="http://www.w3.org/2000/svg" viewBox="0 0 6.56 6.38"><defs><style>.cls-1{fill:#1e689e;}.cls-2{fill:#fff;}</style></defs><title>13n</title><g id="Layer_2" data-name="Layer 2"><g id="Layer_1-2" data-name="Layer 1"><path class="cls-1" d="M1.45,1.53h0a1.23,1.23,0,0,1,0-.2A.89.89,0,0,1,2.34.44a.92.92,0,0,1,.54.18A1.44,1.44,0,0,1,4.06,0,1.43,1.43,0,0,1,5.49,1.43a1.55,1.55,0,0,1,0,.31A1.36,1.36,0,0,1,5.2,4.43H1.45a1.45,1.45,0,0,1,0-2.9Z"/><path class="cls-2" d="M3.13,4.4a.12.12,0,0,0,0-.17h0l0-.05a.12.12,0,0,0,0-.17H3a.13.13,0,0,0-.11.06l0,.05-.44-.25.44-.25,0,0A.13.13,0,0,0,3,3.71h.06a.12.12,0,0,0,0-.17l0,0h0a.11.11,0,0,0,0-.16A.12.12,0,0,0,3,3.25L3,3.27H3l0,0a.14.14,0,0,0-.11-.06H2.77a.12.12,0,0,0,0,.17l0,0-.43.25V3.12h.05a.12.12,0,1,0,0-.24H2.32a.12.12,0,1,0-.24,0H2a.12.12,0,1,0,0,.24h.06v.53l-.46-.27,0,0a.13.13,0,0,0,0-.17l-.06,0a.11.11,0,0,0-.1.06l0,0h0l-.06,0a.11.11,0,0,0-.11.06.14.14,0,0,0,0,.17h0l0,0a.13.13,0,0,0,.05.17h.06a.11.11,0,0,0,.1-.06l0-.05L2,3.86l-.45.26,0,0A.11.11,0,0,0,1.37,4L1.31,4a.12.12,0,0,0-.05.16l0,0h0a.14.14,0,0,0,0,.17.11.11,0,0,0,.11.06.07.07,0,0,0,.06,0h0l0,0a.11.11,0,0,0,.1.06.07.07,0,0,0,.06,0,.12.12,0,0,0,0-.16l0,0,.46-.26v.5H2a.12.12,0,1,0,0,.24h.06a.12.12,0,1,0,.24,0h.05a.12.12,0,1,0,0-.24H2.32v-.5l.43.25,0,0a.11.11,0,0,0,0,.16l.06,0a.14.14,0,0,0,.11-.06l0,0H3l.06,0A.11.11,0,0,0,3.13,4.4Z"/><path class="cls-2" d="M5.14,3.64a.1.1,0,0,0-.09-.07H5v0a.08.08,0,0,0-.08-.07h0a.09.09,0,0,0-.07.1v0l-.39.08.13-.4h.08a.1.1,0,0,0,.08-.06.09.09,0,0,0-.06-.11l0,0h0A.09.09,0,0,0,4.6,3h0a.08.08,0,0,0-.08.06h0l0,0h0a.08.08,0,0,0-.08.05.1.1,0,0,0,0,.12h0l-.14.4L4,3.31l0,0a.09.09,0,0,0,0-.12.11.11,0,0,0-.07,0l-.06,0,0,0h0a.09.09,0,0,0-.07,0s0,0,0,0a.08.08,0,0,0,0,.12h0l0,0a.08.08,0,0,0,0,.12.09.09,0,0,0,.06,0h0s0,0,0,0l0,0,.28.32-.41.08V3.78a.1.1,0,0,0-.09-.07h0s-.07,0-.07.1v.05h0A.08.08,0,0,0,3.5,4,.08.08,0,0,0,3.58,4h0v0a.08.08,0,0,0,.08.07h0a.08.08,0,0,0,.07-.1V4l.42-.08-.13.38H4a.09.09,0,0,0-.08.06.08.08,0,0,0,0,.11l0,0H4a.09.09,0,0,0,0,.11h0a.08.08,0,0,0,.08-.06h0l0,0h0a.08.08,0,0,0,.08-.06.09.09,0,0,0,0-.11h0L4.36,4l.27.31,0,0a.08.08,0,0,0,0,.12.09.09,0,0,0,.06,0h0a.07.07,0,0,0,.06,0l0,0h0a.09.09,0,0,0,.06,0h0a.05.05,0,0,0,0,0,.08.08,0,0,0,0-.12h0l0,0a.08.08,0,0,0,0-.12.09.09,0,0,0-.07,0l-.06,0,0,0-.27-.3.4-.08v.05A.08.08,0,0,0,5,3.9H5a.09.09,0,0,0,.07-.11v0h0A.08.08,0,0,0,5.14,3.64Z"/><path class="cls-2" d="M4.73,5.19H4.67V5.13a.07.07,0,0,0-.08-.08.08.08,0,0,0-.09.08v.06H4.44a.08.08,0,0,0-.08.09.07.07,0,0,0,.08.08H4.5v.06a.09.09,0,0,0,.09.09.08.08,0,0,0,.08-.09V5.36h.06a.08.08,0,0,0,.09-.08A.09.09,0,0,0,4.73,5.19Z"/><path class="cls-2" d="M3.64,6.06H3.58V6a.09.09,0,0,0-.09-.09A.09.09,0,0,0,3.41,6v.06H3.35a.09.09,0,0,0-.09.08.09.09,0,0,0,.09.09h.06v.06a.09.09,0,0,0,.08.09.09.09,0,0,0,.09-.09V6.23h.06a.09.09,0,0,0,.09-.09A.09.09,0,0,0,3.64,6.06Z"/><path class="cls-2" d="M3.21,5.16H3.15V5.1A.08.08,0,0,0,3.07,5,.08.08,0,0,0,3,5.1v.06H2.92a.09.09,0,0,0-.09.09.08.08,0,0,0,.09.08H3v.06a.09.09,0,0,0,.09.09.09.09,0,0,0,.08-.09V5.33h.06a.08.08,0,0,0,.09-.08A.09.09,0,0,0,3.21,5.16Z"/><path class="cls-2" d="M2,5.59H2v0a.09.09,0,0,0-.08-.09.09.09,0,0,0-.09.09v0H1.73a.09.09,0,1,0,0,.18h.06v.06a.09.09,0,0,0,.09.08A.09.09,0,0,0,2,5.83V5.77H2a.09.09,0,0,0,0-.18Z"/></g></g></svg>