<svg xmlns="http://www.w3.org/2000/svg" viewBox="0 0 6.56 5.49"><defs><style>.cls-1{fill:#1e689e;}</style></defs><title>50n</title><g id="Layer_2" data-name="Layer 2"><g id="Layer_1-2" data-name="Layer 1"><path class="cls-1" d="M1.45,1.53h0a1.23,1.23,0,0,1,0-.2A.89.89,0,0,1,2.34.44a.92.92,0,0,1,.54.18A1.44,1.44,0,0,1,4.06,0,1.43,1.43,0,0,1,5.49,1.43a1.55,1.55,0,0,1,0,.31A1.36,1.36,0,0,1,5.2,4.43H1.45a1.45,1.45,0,0,1,0-2.9Z"/><rect class="cls-1" x="1.8" y="4.72" width="2.91" height="0.33"/><rect class="cls-1" x="1.8" y="5.33" width="2.91" height="0.16"/></g></g></svg>