<svg xmlns="http://www.w3.org/2000/svg" viewBox="0 0 16.51 18.58"><defs><style>.cls-1{fill:#fff;}</style></defs><title>Pin Point</title><g id="Layer_2" data-name="Layer 2"><g id="Layer_1-2" data-name="Layer 1"><path class="cls-1" d="M15.88,5.09a8.36,8.36,0,0,0-1.79-2.67h0A8.29,8.29,0,0,0,11.41.63h0a8.25,8.25,0,0,0-9,1.79A8,8,0,0,0,.63,5.1a8.24,8.24,0,0,0,.92,8,8.45,8.45,0,0,0,1.72,1.76A8.65,8.65,0,0,0,5.35,16l2.4,2.39a.72.72,0,0,0,1,0v0L9.13,18l2-2a8.29,8.29,0,0,0,2.08-1.15A8.16,8.16,0,0,0,15,13.06a8.21,8.21,0,0,0,.93-8Zm-1.13,5.25h0a6.88,6.88,0,0,1-1,1.89,7,7,0,0,1-1.41,1.46,7.31,7.31,0,0,1-1.78,1h0l-.05,0a.65.65,0,0,0-.27.17l-2,2-2-2h0A.62.62,0,0,0,6,14.69H6l0,0a6.69,6.69,0,0,1-1.78-1,6.78,6.78,0,0,1-1.42-1.46,6.58,6.58,0,0,1-.95-1.89,6.63,6.63,0,0,1-.33-2.09A6.75,6.75,0,0,1,2,5.64,6.51,6.51,0,0,1,3.43,3.43,6.81,6.81,0,0,1,10.86,2h0a6.8,6.8,0,0,1,2.22,1.48h0a6.81,6.81,0,0,1,2,4.82,6.92,6.92,0,0,1-.33,2.09ZM11.48,5h0A4.56,4.56,0,0,0,5,5l0,0a4.57,4.57,0,1,0,6.48,0ZM12,8.25h0A3.7,3.7,0,0,1,8.25,12a3.69,3.69,0,0,1-3.7-3.71,3.69,3.69,0,0,1,1.06-2.6l0,0a3.72,3.72,0,0,1,5.24,0h0A3.66,3.66,0,0,1,12,8.25Z"/></g></g></svg>