<svg xmlns="http://www.w3.org/2000/svg" viewBox="0 0 24 24"><defs><style>.cls-1{fill:none;stroke:#163567;stroke-linecap:round;stroke-linejoin:round;}</style></defs><title>Save</title><g id="Layer_2" data-name="Layer 2"><g id="transport"><path class="cls-1" d="M23.5,22.5V5.5l-5-5H1.5a1,1,0,0,0-1,1v21a1,1,0,0,0,1,1h21A1,1,0,0,0,23.5,22.5Z"/><path class="cls-1" d="M4.5,14.5h15a0,0,0,0,1,0,0v8a1,1,0,0,1-1,1H5.5a1,1,0,0,1-1-1v-8A0,0,0,0,1,4.5,14.5Z" transform="translate(24 38) rotate(180)"/><path class="cls-1" d="M6.5.5h8a0,0,0,0,1,0,0v6a1,1,0,0,1-1,1h-6a1,1,0,0,1-1-1V.5A0,0,0,0,1,6.5.5Z"/></g></g></svg>