<svg xmlns="http://www.w3.org/2000/svg" viewBox="0 0 16 15"><defs><style>.cls-1{fill:#fff;}</style></defs><title>spyglass</title><g id="Layer_2" data-name="Layer 2"><g id="Layer_1-2" data-name="Layer 1"><path class="cls-1" d="M15.61,12.85,11.78,9.26l-.12-.12a5.68,5.68,0,0,0,1-3.21A6.13,6.13,0,0,0,6.33,0,6.12,6.12,0,0,0,0,5.93a6.12,6.12,0,0,0,6.33,5.93,6.48,6.48,0,0,0,3.43-.94l.12.11,3.84,3.59a1.4,1.4,0,0,0,.92.38,1.24,1.24,0,0,0,.93-.38A1.16,1.16,0,0,0,15.61,12.85ZM6.33,10A4.18,4.18,0,0,1,2,5.93a4.18,4.18,0,0,1,4.31-4,4.19,4.19,0,0,1,4.32,4A4.19,4.19,0,0,1,6.33,10Z"/></g></g></svg>