<svg xmlns="http://www.w3.org/2000/svg" viewBox="0 0 7.36 6.03"><defs><style>.cls-1{fill:#fc0;}.cls-2{fill:#fff;}</style></defs><title>Sunrise</title><g id="Layer_2" data-name="Layer 2"><g id="Layer_1-2" data-name="Layer 1"><path class="cls-1" d="M3.68,1.69a2,2,0,0,0-2,2h4A2,2,0,0,0,3.68,1.69Z"/><path class="cls-1" d="M3.68,1.37a.21.21,0,0,1-.21-.22V.21A.21.21,0,0,1,3.68,0,.22.22,0,0,1,3.9.21v.94A.22.22,0,0,1,3.68,1.37Z"/><path class="cls-1" d="M1.89,2.11A.19.19,0,0,1,1.74,2l-.66-.66a.2.2,0,0,1,0-.3.2.2,0,0,1,.3,0L2,1.74A.2.2,0,0,1,2,2,.18.18,0,0,1,1.89,2.11Z"/><path class="cls-1" d="M5.47,2.11A.19.19,0,0,1,5.32,2a.2.2,0,0,1,0-.3L6,1.08a.21.21,0,0,1,.31,0,.22.22,0,0,1,0,.3L5.62,2A.19.19,0,0,1,5.47,2.11Z"/><path class="cls-2" d="M7.15,3.9H.21A.22.22,0,0,1,0,3.68a.21.21,0,0,1,.21-.21H7.15a.21.21,0,0,1,.21.21A.21.21,0,0,1,7.15,3.9Z"/><path class="cls-2" d="M3.68,6a.21.21,0,0,1-.21-.21V4.52a.21.21,0,0,1,.21-.21.22.22,0,0,1,.22.21v1.3A.21.21,0,0,1,3.68,6Z"/><path class="cls-2" d="M3.22,5.2a.23.23,0,0,1-.15-.07.22.22,0,0,1,0-.3l.46-.46a.22.22,0,0,1,.3,0,.2.2,0,0,1,0,.3l-.46.46A.21.21,0,0,1,3.22,5.2Z"/><path class="cls-2" d="M3.22,5.2a.23.23,0,0,1-.15-.07.22.22,0,0,1,0-.3l.46-.46a.22.22,0,0,1,.3,0,.2.2,0,0,1,0,.3l-.46.46A.21.21,0,0,1,3.22,5.2Z"/><path class="cls-2" d="M4.14,5.2A.21.21,0,0,1,4,5.13l-.46-.46a.21.21,0,1,1,.3-.3l.46.46a.2.2,0,0,1,0,.3A.23.23,0,0,1,4.14,5.2Z"/></g></g></svg>