<svg id="Layer_1" data-name="Layer 1" xmlns="http://www.w3.org/2000/svg" viewBox="0 0 1080.04 882.58"><defs><style>.cls-1{fill:#ffcc07;}.cls-2{fill:#fff;}</style></defs><title>uv-ultraviolet-index</title><g id="Layer_1-2-2" data-name="Layer 1-2-2"><path class="cls-1" d="M543.66,265.55C381.58,265.55,250.18,397,250.18,559h587C837.14,397,705.75,265.55,543.66,265.55Z" transform="translate(-3.66 -17.56)"/></g><g id="Layer_1-2-2-2" data-name="Layer 1-2-2"><path class="cls-1" d="M542.19,218.59a30.81,30.81,0,0,1-30.81-30.81h0V48.38a30.82,30.82,0,0,1,30.81-30.82h0a32.29,32.29,0,0,1,32.29,30.82V186.31a32.28,32.28,0,0,1-32.29,32.28Z" transform="translate(-3.66 -17.56)"/></g><g id="Layer_1-2-2-3" data-name="Layer 1-2-2"><path class="cls-1" d="M281,325.72a27.89,27.89,0,0,1-22-16.15l-96.85-96.84a29.34,29.34,0,0,1,0-41.09h0a29.34,29.34,0,0,1,41.09,0h0l91,102.72a30.79,30.79,0,0,1,2.94,35.21A29.37,29.37,0,0,1,281,325.72Z" transform="translate(-3.66 -17.56)"/></g><g id="Layer_1-2-2-4" data-name="Layer 1-2-2"><path class="cls-1" d="M806.33,327.18a27.86,27.86,0,0,1-22-16.14,29.34,29.34,0,0,1,0-41.09h0L884.1,176a30.81,30.81,0,0,1,44,0h0a32.27,32.27,0,0,1,0,44l-99.78,91A27.86,27.86,0,0,1,806.33,327.18Z" transform="translate(-3.66 -17.56)"/></g><g id="Layer_1-2-2-5" data-name="Layer 1-2-2"><path class="cls-2" d="M1052.85,588.38H34.47A32.28,32.28,0,0,1,3.66,556.1a30.82,30.82,0,0,1,30.81-30.82H1052.85a30.82,30.82,0,0,1,30.82,30.82h0a30.81,30.81,0,0,1-29.35,32.28Z" transform="translate(-3.66 -17.56)"/></g><g id="Layer_1-2-2-6" data-name="Layer 1-2-2"><path class="cls-2" d="M543.66,896.53a30.8,30.8,0,0,1-30.81-30.81h0V679.36a30.81,30.81,0,0,1,30.81-30.82h0a32.28,32.28,0,0,1,32.28,30.82V870.12A30.8,30.8,0,0,1,543.66,896.53Z" transform="translate(-3.66 -17.56)"/></g><g id="Layer_1-2-2-7" data-name="Layer 1-2-2"><path class="cls-2" d="M543.66,898a29.3,29.3,0,0,1-22,0,32.27,32.27,0,0,1,0-44l69-71.9a32.27,32.27,0,0,1,44,0,29.33,29.33,0,0,1,0,41.08h0l-69,74.84A29.3,29.3,0,0,1,543.66,898Z" transform="translate(-3.66 -17.56)"/></g><g id="Layer_1-2-2-8" data-name="Layer 1-2-2"><path class="cls-2" d="M543.66,898a29.3,29.3,0,0,1-22,0,32.27,32.27,0,0,1,0-44l69-71.9a32.27,32.27,0,0,1,44,0,29.33,29.33,0,0,1,0,41.08h0l-69,74.84A29.3,29.3,0,0,1,543.66,898Z" transform="translate(-3.66 -17.56)"/></g><g id="Layer_1-2-2-9" data-name="Layer 1-2-2"><path class="cls-2" d="M543.66,896.53a29.3,29.3,0,0,1-22,0L454.15,829a32.27,32.27,0,0,1,0-44,33.76,33.76,0,0,1,45.49,0l66,67.5a29.34,29.34,0,0,1,0,41.09h0A29.32,29.32,0,0,1,543.66,896.53Z" transform="translate(-3.66 -17.56)"/></g><path class="cls-1" d="M540,538.68a2,2,0,0,0-2,2h4A2,2,0,0,0,540,538.68Z" transform="translate(-3.66 -17.56)"/><path class="cls-1" d="M540,538.37a.21.21,0,0,1-.21-.21h0v-.95A.21.21,0,0,1,540,537h0a.22.22,0,0,1,.22.21v.94a.21.21,0,0,1-.22.22Z" transform="translate(-3.66 -17.56)"/><path class="cls-1" d="M538.21,539.1a.19.19,0,0,1-.15-.11l-.66-.66a.19.19,0,0,1,0-.28h0a.19.19,0,0,1,.28,0h0l.62.7a.21.21,0,0,1,0,.24A.2.2,0,0,1,538.21,539.1Z" transform="translate(-3.66 -17.56)"/><path class="cls-1" d="M541.79,539.11a.26.26,0,0,1-.15-.39h0l.68-.64a.22.22,0,0,1,.3,0h0a.22.22,0,0,1,0,.3l-.68.62A.19.19,0,0,1,541.79,539.11Z" transform="translate(-3.66 -17.56)"/><path class="cls-2" d="M543.47,540.89h-6.94a.22.22,0,0,1-.21-.22.21.21,0,0,1,.21-.21h6.94a.21.21,0,0,1,.21.21h0a.25.25,0,0,1,0,.15.21.21,0,0,1-.15.07Z" transform="translate(-3.66 -17.56)"/><path class="cls-2" d="M540,543a.21.21,0,0,1-.21-.21h0v-1.27a.21.21,0,0,1,.21-.21h0a.22.22,0,0,1,.22.21v1.3A.21.21,0,0,1,540,543Z" transform="translate(-3.66 -17.56)"/><path class="cls-2" d="M540,543a.2.2,0,0,1-.15,0,.22.22,0,0,1,0-.3l.47-.49a.22.22,0,0,1,.3,0,.19.19,0,0,1,0,.28h0l-.47.51A.2.2,0,0,1,540,543Z" transform="translate(-3.66 -17.56)"/><path class="cls-2" d="M540,543a.2.2,0,0,1-.15,0,.22.22,0,0,1,0-.3l.47-.49a.22.22,0,0,1,.3,0,.19.19,0,0,1,0,.28h0l-.47.51A.2.2,0,0,1,540,543Z" transform="translate(-3.66 -17.56)"/><path class="cls-2" d="M540,543a.2.2,0,0,1-.15,0l-.46-.46a.22.22,0,0,1,0-.3.23.23,0,0,1,.31,0l.45.46a.19.19,0,0,1,0,.28h0A.2.2,0,0,1,540,543Z" transform="translate(-3.66 -17.56)"/></svg>