<svg xmlns="http://www.w3.org/2000/svg" viewBox="0 0 6.36 4.95"><defs><style>.cls-1{fill:#fff;}</style></defs><title>wind</title><g id="Layer_2" data-name="Layer 2"><g id="Layer_1-2" data-name="Layer 1"><path class="cls-1" d="M4,5A1.14,1.14,0,0,1,2.9,4.1.17.17,0,0,1,3,3.88.19.19,0,0,1,3.25,4a.79.79,0,0,0,.94.57.75.75,0,0,0,.6-.52.64.64,0,0,0-.15-.64,1,1,0,0,0-1-.09,4.16,4.16,0,0,1-2.41.16,4.06,4.06,0,0,0-1-.08A.18.18,0,0,1,0,3.24.19.19,0,0,1,.17,3a3.87,3.87,0,0,1,1.1.09A3.84,3.84,0,0,0,3.49,3a1.3,1.3,0,0,1,1.4.16,1,1,0,0,1,.25,1,1.08,1.08,0,0,1-.88.76A1.24,1.24,0,0,1,4,5Z"/><path class="cls-1" d="M2.32,2.81a2.32,2.32,0,0,1-.74-.12A3.34,3.34,0,0,0,.2,2.59.19.19,0,0,1,0,2.43a.18.18,0,0,1,.16-.2,3.57,3.57,0,0,1,1.52.11,1.93,1.93,0,0,0,.82.1,3.93,3.93,0,0,0,.88-.17,2.64,2.64,0,0,1,1.75,0,.65.65,0,0,0,.63-.13A.82.82,0,0,0,6,1.36a.63.63,0,0,0-.6-.52.85.85,0,0,0-.84.67.19.19,0,0,1-.23.12.18.18,0,0,1-.12-.23A1.2,1.2,0,0,1,5.4.48a1,1,0,0,1,.94.82A1.19,1.19,0,0,1,6,2.42a1,1,0,0,1-1,.21,2.26,2.26,0,0,0-1.55,0,4.76,4.76,0,0,1-.94.18Z"/><path class="cls-1" d="M2.58,2H2.39a3.53,3.53,0,0,1-.64-.11,3.23,3.23,0,0,0-1.54,0A.19.19,0,0,1,0,1.69a.18.18,0,0,1,.15-.21,3.55,3.55,0,0,1,1.69.05,4.35,4.35,0,0,0,.58.1A1.13,1.13,0,0,0,3.62,1a.47.47,0,0,0,0-.5A.45.45,0,0,0,3.15.37.78.78,0,0,0,2.58,1a.18.18,0,0,1-.23.12A.18.18,0,0,1,2.23.85,1.14,1.14,0,0,1,3.09,0a.84.84,0,0,1,.8.3A.84.84,0,0,1,4,1.18,1.43,1.43,0,0,1,2.58,2Z"/></g></g></svg>