<svg xmlns="http://www.w3.org/2000/svg" viewBox="0 0 256 256"><defs><style>.cls-1{fill:#fbb040;}</style></defs><title>Asset 30</title><g id="Layer_2" data-name="Layer 2"><g id="Layer_1-2" data-name="Layer 1"><circle class="cls-1" cx="128" cy="128" r="64"/><path class="cls-1" d="M128,56a4,4,0,0,0,4-4V4a4,4,0,0,0-8,0V52A4,4,0,0,0,128,56Z"/><path class="cls-1" d="M128,200a4,4,0,0,0-4,4v48a4,4,0,0,0,8,0V204A4,4,0,0,0,128,200Z"/><path class="cls-1" d="M252,124H204a4,4,0,0,0,0,8h48a4,4,0,0,0,0-8Z"/><path class="cls-1" d="M56,128a4,4,0,0,0-4-4H4a4,4,0,0,0,0,8H52A4,4,0,0,0,56,128Z"/><path class="cls-1" d="M184.57,178.91a4,4,0,0,0-5.66,5.66l33.94,33.94a4,4,0,1,0,5.66-5.66Z"/><path class="cls-1" d="M71.43,77.09a4,4,0,0,0,5.66-5.66L43.15,37.49a4,4,0,0,0-5.66,5.66Z"/><path class="cls-1" d="M71.43,178.91,37.49,212.85a4,4,0,1,0,5.66,5.66l33.94-33.94a4,4,0,0,0-5.66-5.66Z"/><path class="cls-1" d="M184.57,77.09l33.94-33.94a4,4,0,1,0-5.66-5.66L178.91,71.43a4,4,0,0,0,5.66,5.66Z"/></g></g></svg>