<?xml version="1.0" encoding="utf-8"?>
<!-- Generator: Adobe Illustrator 24.0.3, SVG Export Plug-In . SVG Version: 6.00 Build 0)  -->
<svg version="1.1" id="Layer_1" xmlns="http://www.w3.org/2000/svg" xmlns:xlink="http://www.w3.org/1999/xlink" x="0px" y="0px"
	 viewBox="0 0 289 317.3" style="enable-background:new 0 0 289 317.3;" xml:space="preserve">
<style type="text/css">
	.st0{fill:#FFFFFF;}
	.st1{fill:none;}
	.st2{fill:#A7A9AC;}
</style>
<title>dense_drizzle_night_1</title>
<path class="st0" d="M245.3,152.1c-4.6,0-9.2,0.7-13.6,2.2c-3.5-16.7-15-29.7-29.6-35.8c-9-3.8-19.3-5-29.6-2.8
	c-23.2,4.9-39.7,25.3-39.7,49c0,0.2,0,0.3,0,0.5c-2.1-0.3-4.2-0.5-6.3-0.5c-20.7,0-37.5,16.8-37.5,37.5c0,15.1,8.9,28.1,21.8,34
	c4.8,2.2,10.1,3.5,15.7,3.5h118.8c24.2,0,43.8-19.6,43.8-43.8C289,171.7,269.4,152.1,245.3,152.1z"/>
<g>
	<path class="st0" d="M186.1,289.3c0,2.2,1.8,4,4,4c2.2,0,4-1.8,4-4c0-2.2-4-12-4-12S186.1,287.1,186.1,289.3z"/>
	<path class="st0" d="M202.1,289.3c0,2.2,1.8,4,4,4c2.2,0,4-1.8,4-4c0-2.2-4-12-4-12S202.1,287.1,202.1,289.3z"/>
	<path class="st0" d="M218.1,289.3c0,2.2,1.8,4,4,4c2.2,0,4-1.8,4-4c0-2.2-4-12-4-12S218.1,287.1,218.1,289.3z"/>
	<path class="st0" d="M138.1,265.3c0,2.2,1.8,4,4,4c2.2,0,4-1.8,4-4c0-2.2-4-12-4-12S138.1,263.1,138.1,265.3z"/>
	<path class="st0" d="M186.1,265.3c0,2.2,1.8,4,4,4c2.2,0,4-1.8,4-4c0-2.2-4-12-4-12S186.1,263.1,186.1,265.3z"/>
	<path class="st0" d="M154.1,265.3c0,2.2,1.8,4,4,4c2.2,0,4-1.8,4-4c0-2.2-4-12-4-12S154.1,263.1,154.1,265.3z"/>
	<path class="st0" d="M170.1,265.3c0,2.2,1.8,4,4,4c2.2,0,4-1.8,4-4c0-2.2-4-12-4-12S170.1,263.1,170.1,265.3z"/>
	<path class="st0" d="M202.1,265.3c0,2.2,1.8,4,4,4c2.2,0,4-1.8,4-4c0-2.2-4-12-4-12S202.1,263.1,202.1,265.3z"/>
	<path class="st0" d="M218.1,265.3c0,2.2,1.8,4,4,4c2.2,0,4-1.8,4-4c0-2.2-4-12-4-12S218.1,263.1,218.1,265.3z"/>
	<path class="st0" d="M238.1,253.3c0,0-4,9.8-4,12c0,2.2,1.8,4,4,4c2.2,0,4-1.8,4-4C242.1,263.1,238.1,253.3,238.1,253.3z"/>
	<path class="st0" d="M170.1,289.3c0,2.2,1.8,4,4,4c2.2,0,4-1.8,4-4c0-2.2-4-12-4-12S170.1,287.1,170.1,289.3z"/>
	<path class="st0" d="M186.1,313.3c0,2.2,1.8,4,4,4c2.2,0,4-1.8,4-4c0-2.2-4-12-4-12S186.1,311.1,186.1,313.3z"/>
	<path class="st0" d="M202.1,313.3c0,2.2,1.8,4,4,4c2.2,0,4-1.8,4-4c0-2.2-4-12-4-12S202.1,311.1,202.1,313.3z"/>
	<path class="st0" d="M170.1,313.3c0,2.2,1.8,4,4,4c2.2,0,4-1.8,4-4c0-2.2-4-12-4-12S170.1,311.1,170.1,313.3z"/>
	<path class="st0" d="M154.1,289.3c0,2.2,1.8,4,4,4c2.2,0,4-1.8,4-4c0-2.2-4-12-4-12S154.1,287.1,154.1,289.3z"/>
</g>
<path class="st1" d="M90.5,176.6c3.6-3.2,6.9-6.6,10.1-10.2C96.6,169.3,93.2,172.8,90.5,176.6z"/>
<path class="st2" d="M164.1,32C144.4,13.5,119,2.2,92,0c24.3,22.7,38,54.4,38,87.6c0,0.4,0,0.7,0,1.1c14.8,0.7,29.2,7.9,38.5,21
	c-22.4,6.1-39,25-42.2,48c-3.2,0.1-6.3,0.5-9.4,1.2c-6.1,1.5-11.6,4.1-16.4,7.6c-3.1,3.6-6.5,7-10.1,10.2
	c-7.4,10.3-10.4,23.7-7.2,37H71.5c-10.4,0-19.9-4.3-26.7-11.1c-11,3.3-22.7,5.1-34.8,5.1c-3.4,0-6.7-0.2-10-0.4
	c30.7,28.8,72.6,38.3,110.7,29c-12.8-5.9-21.8-18.9-21.8-34c0-20.7,16.8-37.5,37.5-37.5c2.1,0,4.2,0.2,6.3,0.5c0-0.2,0-0.3,0-0.5
	c0-23.7,16.5-44.1,39.7-49c10.3-2.2,20.6-1,29.6,2.8C201.8,86.8,189,55.3,164.1,32z"/>
<path class="st0" d="M130,88.6c-10.8-0.5-21.8,2.5-31.2,9.2c-13.2,9.4-21,24.6-21,40.8c0,0.2,0,0.4,0,0.5c-2.1-0.3-4.2-0.5-6.3-0.5
	c-20.7,0-37.5,16.8-37.5,37.5c0,10.3,4.1,19.6,10.8,26.4c6.8,6.9,16.2,11.1,26.7,11.1h11.8c-3.2-13.3-0.1-26.6,7.2-37
	c2.8-3.9,6.1-7.4,10.1-10.2c4.8-3.5,10.3-6.1,16.4-7.6c3.1-0.7,6.2-1.2,9.4-1.2c3.2-23,19.8-41.9,42.2-48
	C159.2,96.6,144.9,89.3,130,88.6z"/>
</svg>
