<svg xmlns="http://www.w3.org/2000/svg" viewBox="0 0 289.01 317.32"><defs><style>.cls-1{fill:#a7a9ac;}.cls-2{fill:#fff;}</style></defs><title>dense_drizzle_night_1</title><g id="Layer_2" data-name="Layer 2"><g id="Layer_1-2" data-name="Layer 1"><path class="cls-1" d="M92.05,0a119.66,119.66,0,0,1,38,87.58,120,120,0,0,1-120,120c-3.37,0-6.71-.15-10-.42A120,120,0,1,0,92.05,0Z"/><path class="cls-2" d="M125.31,156.6a58.17,58.17,0,0,1,42.2-48,50,50,0,0,0-90.75,29c0,.18,0,.35,0,.53a38.07,38.07,0,0,0-6.27-.53,37.5,37.5,0,0,0,0,75H82.25a45.45,45.45,0,0,1,43.06-56Z"/><path class="cls-2" d="M245.26,152.08a43.48,43.48,0,0,0-13.57,2.16,50,50,0,0,0-98.93,10.34c0,.18,0,.35,0,.53a38.07,38.07,0,0,0-6.27-.53,37.5,37.5,0,0,0,0,75H245.26a43.75,43.75,0,0,0,0-87.5Z"/><path class="cls-2" d="M190.13,253.32s-4,9.79-4,12a4,4,0,0,0,8,0c0-2.21-4-12-4-12"/><path class="cls-2" d="M206.13,253.32s-4,9.79-4,12a4,4,0,0,0,8,0c0-2.21-4-12-4-12"/><path class="cls-2" d="M174.13,253.32s-4,9.79-4,12a4,4,0,0,0,8,0c0-2.21-4-12-4-12"/><path class="cls-2" d="M186.13,289.32a4,4,0,0,0,8,0c0-2.21-4-12-4-12S186.13,287.11,186.13,289.32Z"/><path class="cls-2" d="M202.13,289.32a4,4,0,0,0,8,0c0-2.21-4-12-4-12S202.13,287.11,202.13,289.32Z"/><path class="cls-2" d="M218.13,289.32a4,4,0,0,0,8,0c0-2.21-4-12-4-12S218.13,287.11,218.13,289.32Z"/><path class="cls-2" d="M222.13,253.32s-4,9.79-4,12a4,4,0,0,0,8,0c0-2.21-4-12-4-12"/><path class="cls-2" d="M158.13,253.32s-4,9.79-4,12a4,4,0,0,0,8,0c0-2.21-4-12-4-12"/><path class="cls-2" d="M142.13,253.32s-4,9.79-4,12a4,4,0,0,0,8,0c0-2.21-4-12-4-12"/><path class="cls-2" d="M238.13,253.32s-4,9.79-4,12a4,4,0,0,0,8,0c0-2.21-4-12-4-12"/><path class="cls-2" d="M170.13,289.32a4,4,0,0,0,8,0c0-2.21-4-12-4-12S170.13,287.11,170.13,289.32Z"/><path class="cls-2" d="M186.13,313.32a4,4,0,0,0,8,0c0-2.21-4-12-4-12S186.13,311.11,186.13,313.32Z"/><path class="cls-2" d="M202.13,313.32a4,4,0,1,0,8,0c0-2.21-4-12-4-12S202.13,311.11,202.13,313.32Z"/><path class="cls-2" d="M170.13,313.32a4,4,0,0,0,8,0c0-2.21-4-12-4-12S170.13,311.11,170.13,313.32Z"/><path class="cls-2" d="M154.13,289.32a4,4,0,0,0,8,0c0-2.21-4-12-4-12S154.13,287.11,154.13,289.32Z"/></g></g></svg>