<svg xmlns="http://www.w3.org/2000/svg" viewBox="0 0 256 208.87"><defs><style>.cls-1{fill:#fff;}.cls-2{fill:none;stroke:#fff;stroke-miterlimit:10;stroke-width:6px;}</style></defs><title>depositing_rime_fog</title><g id="Layer_2" data-name="Layer 2"><g id="Layer_1-2" data-name="Layer 1"><path class="cls-1" d="M200,48a56.07,56.07,0,0,0-17.38,2.76A64,64,0,0,0,56,64c0,.23,0,.45,0,.68A48,48,0,1,0,48,160H200a56,56,0,0,0,0-112Z"/><line class="cls-2" x1="70.38" y1="178.26" x2="182.97" y2="178.26"/><line class="cls-2" x1="78.5" y1="196.29" x2="178.09" y2="196.29"/><path class="cls-1" d="M248.36,189.11h-10.2l5.1-8.83a3.13,3.13,0,0,0-5.41-3.13l-5.1,8.84-5.1-8.84a3.13,3.13,0,1,0-5.41,3.13l5.1,8.83h-10.2a3.13,3.13,0,0,0,0,6.25h10.2l-5.1,8.83a3.12,3.12,0,1,0,5.41,3.12l5.1-8.83,5.1,8.83a3.12,3.12,0,1,0,5.41-3.12l-5.1-8.83h10.2a3.13,3.13,0,0,0,0-6.25Z"/></g></g></svg>