<svg xmlns="http://www.w3.org/2000/svg" viewBox="0 0 256 305.6"><defs><style>.cls-1{fill:#a7a9ac;}.cls-2{fill:#fff;}</style></defs><title>freezing_light_drizzle_night</title><g id="Layer_2" data-name="Layer 2"><g id="Layer_1-2" data-name="Layer 1"><path class="cls-1" d="M92.3,173a57.95,57.95,0,0,1,73.11-47.85A100.25,100.25,0,0,0,76.84,0a99.89,99.89,0,0,1,31.7,73.11A100.18,100.18,0,0,1,8.37,173.29c-2.82,0-5.61-.13-8.37-.35a99.84,99.84,0,0,0,52.53,25.79A45.56,45.56,0,0,1,92.3,173Z"/><path class="cls-2" d="M212.25,168.5a43.59,43.59,0,0,0-13.58,2.16A50,50,0,0,0,99.75,181c0,.18,0,.35,0,.53A37.5,37.5,0,1,0,93.5,256H212.25a43.75,43.75,0,0,0,0-87.5Z"/><path class="cls-2" d="M175,265.6s-4,9.79-4,12a4,4,0,0,0,8,0c0-2.21-4-12-4-12"/><path class="cls-2" d="M191,265.6s-4,9.79-4,12a4,4,0,0,0,8,0c0-2.21-4-12-4-12"/><path class="cls-2" d="M159,265.6s-4,9.79-4,12a4,4,0,0,0,8,0c0-2.21-4-12-4-12"/><path class="cls-2" d="M171,301.6a4,4,0,0,0,8,0c0-2.21-4-12-4-12S171,299.39,171,301.6Z"/><path class="cls-2" d="M143,265.6s-4,9.79-4,12a4,4,0,0,0,8,0c0-2.21-4-12-4-12"/><path class="cls-2" d="M127,265.6s-4,9.79-4,12a4,4,0,0,0,8,0c0-2.21-4-12-4-12"/><path class="cls-2" d="M155,301.6a4,4,0,0,0,8,0c0-2.21-4-12-4-12S155,299.39,155,301.6Z"/><path class="cls-2" d="M139,301.6a4,4,0,0,0,8,0c0-2.21-4-12-4-12S139,299.39,139,301.6Z"/><path class="cls-2" d="M248.22,284.19H238l5.1-8.84a3.12,3.12,0,0,0-5.41-3.12l-5.1,8.84-5.1-8.84a3.12,3.12,0,0,0-5.41,3.12l5.11,8.84H217a3.12,3.12,0,0,0,0,6.24h10.21l-5.11,8.84a3.12,3.12,0,0,0,5.41,3.12l5.1-8.84,5.1,8.84a3.12,3.12,0,0,0,5.41-3.12l-5.1-8.84h10.2a3.12,3.12,0,1,0,0-6.24Z"/></g></g></svg>