<svg xmlns="http://www.w3.org/2000/svg" viewBox="0 0 289.01 296.75"><defs><style>.cls-1{fill:#a7a9ac;}.cls-2{fill:#fff;}</style></defs><title>freezing_light_rain_night</title><g id="Layer_2" data-name="Layer 2"><g id="Layer_1-2" data-name="Layer 1"><path class="cls-1" d="M92.05,0a119.66,119.66,0,0,1,38,87.58,120,120,0,0,1-120,120c-3.37,0-6.71-.15-10-.42A120,120,0,1,0,92.05,0Z"/><path class="cls-2" d="M125.31,156.6a58.17,58.17,0,0,1,42.2-48,50,50,0,0,0-90.75,29c0,.18,0,.35,0,.53a38.07,38.07,0,0,0-6.27-.53,37.5,37.5,0,0,0,0,75H82.25a45.45,45.45,0,0,1,43.06-56Z"/><path class="cls-2" d="M245.26,152.08a43.48,43.48,0,0,0-13.57,2.16,50,50,0,0,0-98.93,10.34c0,.18,0,.35,0,.53a38.07,38.07,0,0,0-6.27-.53,37.5,37.5,0,0,0,0,75H245.26a43.75,43.75,0,0,0,0-87.5Z"/><path class="cls-2" d="M176.47,295.2a12,12,0,0,0,16.35-4.54c3.26-5.77,3.33-30.28,3.33-30.28s-21,12.7-24.23,18.47A12,12,0,0,0,176.47,295.2Zm2.38-12.36c.92-1.31,4.26-4,8.67-7.21-.43,5.42-1.05,9.69-1.7,11.15a4,4,0,0,1-3.46,2,3.89,3.89,0,0,1-2-.52,4,4,0,0,1-1.55-5.39Z"/><path class="cls-2" d="M147.26,271.43H134.19l6.53-11.32a4,4,0,0,0-6.93-4l-6.53,11.32-6.54-11.32a4,4,0,0,0-6.93,4l6.54,11.32H107.26a4,4,0,1,0,0,8h13.07l-6.54,11.32a4,4,0,1,0,6.93,4l6.54-11.32,6.53,11.32a4,4,0,1,0,6.93-4l-6.53-11.32h13.07a4,4,0,0,0,0-8Z"/><path class="cls-2" d="M259.26,271.43H246.19l6.53-11.32a4,4,0,0,0-6.93-4l-6.53,11.32-6.54-11.32a4,4,0,0,0-6.93,4l6.54,11.32H219.26a4,4,0,0,0,0,8h13.07l-6.54,11.32a4,4,0,1,0,6.93,4l6.54-11.32,6.53,11.32a4,4,0,1,0,6.93-4l-6.53-11.32h13.07a4,4,0,0,0,0-8Z"/></g></g></svg>