<svg xmlns="http://www.w3.org/2000/svg" viewBox="0 0 256 351.64"><defs><style>.cls-1{fill:#fbb040;}.cls-2{fill:#fff;}</style></defs><title>freezing_heavy_rain_day</title><g id="Layer_2" data-name="Layer 2"><g id="Layer_1-2" data-name="Layer 1"><path class="cls-1" d="M128,56a4,4,0,0,0,4-4V4a4,4,0,0,0-8,0V52A4,4,0,0,0,128,56Z"/><path class="cls-1" d="M200,128a4,4,0,0,0,4,4h48a4,4,0,0,0,0-8H204A4,4,0,0,0,200,128Z"/><path class="cls-1" d="M71.43,77.09a4,4,0,0,0,5.66-5.66L43.15,37.49a4,4,0,0,0-5.66,5.66Z"/><path class="cls-1" d="M184.57,77.09l33.94-33.94a4,4,0,1,0-5.66-5.66L178.91,71.43a4,4,0,0,0,5.66,5.66Z"/><path class="cls-1" d="M93.75,88A58.13,58.13,0,0,1,141,112.41l2.12,3a57.71,57.71,0,0,1,48.64,17.66c.13-1.66.22-3.35.22-5.05A64,64,0,0,0,75.93,90.81,57.71,57.71,0,0,1,93.75,88Z"/><path class="cls-2" d="M92.3,165a58.17,58.17,0,0,1,42.2-48,50,50,0,0,0-90.75,29c0,.18,0,.35,0,.53A37.5,37.5,0,1,0,37.5,221H49.24A45.45,45.45,0,0,1,92.3,165Z"/><path class="cls-2" d="M212.25,160.5a43.59,43.59,0,0,0-13.58,2.16A50,50,0,0,0,99.75,173c0,.18,0,.35,0,.53A37.5,37.5,0,1,0,93.5,248H212.25a43.75,43.75,0,0,0,0-87.5Z"/><path class="cls-2" d="M146.45,302.09a12,12,0,0,0,16.35-4.54c3.26-5.77,3.34-30.28,3.34-30.28s-21,12.7-24.23,18.47A12,12,0,0,0,146.45,302.09Zm2.39-12.36c.92-1.31,4.26-4,8.67-7.21-.43,5.42-1,9.69-1.71,11.15a4,4,0,0,1-3.45,2,3.89,3.89,0,0,1-2-.52,4,4,0,0,1-1.55-5.39Z"/><path class="cls-2" d="M186.8,329.74a12,12,0,0,0,20.89,11.81c3.27-5.77,3.34-30.28,3.34-30.28S190.06,324,186.8,329.74Zm6.93,4c.92-1.31,4.26-4,8.67-7.21-.43,5.42-1.05,9.68-1.7,11.15a4,4,0,0,1-3.46,2,3.89,3.89,0,0,1-2-.52A4,4,0,0,1,193.73,333.73Z"/><path class="cls-2" d="M97,329.74a12,12,0,0,0,20.89,11.81c3.26-5.77,3.34-30.28,3.34-30.28S100.28,324,97,329.74Zm6.93,4c.92-1.31,4.26-4,8.67-7.21-.43,5.41-1.05,9.68-1.71,11.15a4,4,0,0,1-3.45,2,3.89,3.89,0,0,1-2-.52,4,4,0,0,1-1.55-5.39Z"/><path class="cls-2" d="M117.25,278.32H104.17L110.71,267a4,4,0,0,0-6.93-4l-6.53,11.32L90.71,263a4,4,0,0,0-6.93,4l6.54,11.32H77.25a4,4,0,0,0,0,8H90.32l-6.54,11.32a4,4,0,1,0,6.93,4l6.54-11.32,6.53,11.32a4,4,0,1,0,6.93-4l-6.54-11.32h13.08a4,4,0,0,0,0-8Z"/><path class="cls-2" d="M229.25,278.32H216.17L222.71,267a4,4,0,0,0-6.93-4l-6.53,11.32L202.71,263a4,4,0,0,0-6.93,4l6.54,11.32H189.25a4,4,0,0,0,0,8h13.07l-6.54,11.32a4,4,0,1,0,6.93,4l6.54-11.32,6.53,11.32a4,4,0,1,0,6.93-4l-6.54-11.32h13.08a4,4,0,0,0,0-8Z"/><path class="cls-2" d="M173.25,326.32H160.17L166.71,315a4,4,0,0,0-6.93-4l-6.53,11.32L146.71,311a4,4,0,0,0-6.93,4l6.54,11.32H133.25a4,4,0,0,0,0,8h13.07l-6.54,11.32a4,4,0,1,0,6.93,4l6.54-11.32,6.53,11.32a4,4,0,1,0,6.93-4l-6.54-11.32h13.08a4,4,0,0,0,0-8Z"/></g></g></svg>