<svg xmlns="http://www.w3.org/2000/svg" viewBox="0 0 256 307.5"><defs><style>.cls-1{fill:#fbb040;}.cls-2{fill:#fff;}</style></defs><title>light_drizzle_day</title><g id="Layer_2" data-name="Layer 2"><g id="Layer_1-2" data-name="Layer 1"><path class="cls-1" d="M128,56a4,4,0,0,0,4-4V4a4,4,0,0,0-8,0V52A4,4,0,0,0,128,56Z"/><path class="cls-1" d="M200,128a4,4,0,0,0,4,4h48a4,4,0,0,0,0-8H204A4,4,0,0,0,200,128Z"/><path class="cls-1" d="M52,124H4a4,4,0,0,0,0,8H52a4,4,0,0,0,0-8Z"/><path class="cls-1" d="M71.43,77.09a4,4,0,0,0,5.66-5.66L43.15,37.49a4,4,0,0,0-5.66,5.66Z"/><path class="cls-1" d="M184.57,77.09l33.94-33.94a4,4,0,1,0-5.66-5.66L178.91,71.43a4,4,0,0,0,5.66,5.66Z"/><path class="cls-2" d="M212.25,168.5a43.59,43.59,0,0,0-13.58,2.16A50,50,0,0,0,99.75,181c0,.18,0,.35,0,.53A37.5,37.5,0,1,0,93.5,256H212.25a43.75,43.75,0,0,0,0-87.5Z"/><path class="cls-1" d="M83.62,174A45.79,45.79,0,0,1,92.3,173,58,58,0,0,1,190.85,140,65,65,0,0,0,192,128,64,64,0,1,0,83.62,174Z"/><path class="cls-2" d="M173,267.5s-4,9.79-4,12a4,4,0,0,0,8,0c0-2.21-4-12-4-12"/><path class="cls-2" d="M189,267.5s-4,9.79-4,12a4,4,0,0,0,8,0c0-2.21-4-12-4-12"/><path class="cls-2" d="M157,267.5s-4,9.79-4,12a4,4,0,0,0,8,0c0-2.21-4-12-4-12"/><path class="cls-2" d="M169,303.5a4,4,0,0,0,8,0c0-2.21-4-12-4-12S169,301.29,169,303.5Z"/><path class="cls-2" d="M141,267.5s-4,9.79-4,12a4,4,0,0,0,8,0c0-2.21-4-12-4-12"/><path class="cls-2" d="M125,267.5s-4,9.79-4,12a4,4,0,0,0,8,0c0-2.21-4-12-4-12"/><path class="cls-2" d="M153,303.5a4,4,0,0,0,8,0c0-2.21-4-12-4-12S153,301.29,153,303.5Z"/><path class="cls-2" d="M137,303.5a4,4,0,0,0,8,0c0-2.21-4-12-4-12S137,301.29,137,303.5Z"/></g></g></svg>