<svg xmlns="http://www.w3.org/2000/svg" viewBox="0 0 256 257"><defs><style>.cls-1{fill:#fbb040;}.cls-2{fill:#fff;}</style></defs><title>mainly_clear_day_1</title><g id="Layer_2" data-name="Layer 2"><g id="Layer_1-2" data-name="Layer 1"><path class="cls-1" d="M128,56a4,4,0,0,0,4-4V4a4,4,0,0,0-8,0V52A4,4,0,0,0,128,56Z"/><path class="cls-1" d="M200,128a4,4,0,0,0,4,4h48a4,4,0,0,0,0-8H204A4,4,0,0,0,200,128Z"/><path class="cls-1" d="M56,128a4,4,0,0,0-4-4H4a4,4,0,0,0,0,8H52A4,4,0,0,0,56,128Z"/><path class="cls-1" d="M71.43,77.09a4,4,0,0,0,5.66-5.66L43.15,37.49a4,4,0,0,0-5.66,5.66Z"/><path class="cls-1" d="M71.43,178.91,37.49,212.85a4,4,0,1,0,5.66,5.66l33.94-33.94a4,4,0,0,0-5.66-5.66Z"/><path class="cls-1" d="M184.57,77.09l33.94-33.94a4,4,0,1,0-5.66-5.66L178.91,71.43a4,4,0,0,0,5.66,5.66Z"/><path class="cls-2" d="M221,187a34.84,34.84,0,0,0-10.86,1.73A40,40,0,0,0,131,197c0,.14,0,.28,0,.42a30.61,30.61,0,0,0-5-.42,30,30,0,0,0,0,60h95a35,35,0,0,0,0-70Z"/><path class="cls-1" d="M123.65,189.74a48,48,0,0,1,63.72-37.18,64,64,0,1,0-72.46,38.77A37.69,37.69,0,0,1,123.65,189.74Z"/></g></g></svg>