<svg xmlns="http://www.w3.org/2000/svg" viewBox="0 0 256 248"><defs><style>.cls-1{fill:#fbb040;}.cls-2{fill:#fff;}</style></defs><title>overcast_day_1</title><g id="Layer_2" data-name="Layer 2"><g id="Layer_1-2" data-name="Layer 1"><path class="cls-1" d="M128,56a4,4,0,0,0,4-4V4a4,4,0,0,0-8,0V52A4,4,0,0,0,128,56Z"/><path class="cls-1" d="M200,128a4,4,0,0,0,4,4h48a4,4,0,0,0,0-8H204A4,4,0,0,0,200,128Z"/><path class="cls-1" d="M71.43,77.09a4,4,0,0,0,5.66-5.66L43.15,37.49a4,4,0,0,0-5.66,5.66Z"/><path class="cls-1" d="M184.57,77.09l33.94-33.94a4,4,0,1,0-5.66-5.66L178.91,71.43a4,4,0,0,0,5.66,5.66Z"/><path class="cls-1" d="M93.75,88A58.13,58.13,0,0,1,141,112.41l2.12,3a57.71,57.71,0,0,1,48.64,17.66c.13-1.66.22-3.35.22-5.05A64,64,0,0,0,75.93,90.81,57.71,57.71,0,0,1,93.75,88Z"/><path class="cls-2" d="M92.3,165a58.17,58.17,0,0,1,42.2-48,50,50,0,0,0-90.75,29c0,.18,0,.35,0,.53A37.5,37.5,0,1,0,37.5,221H49.24A45.45,45.45,0,0,1,92.3,165Z"/><path class="cls-2" d="M212.25,160.5a43.59,43.59,0,0,0-13.58,2.16A50,50,0,0,0,99.75,173c0,.18,0,.35,0,.53A37.5,37.5,0,1,0,93.5,248H212.25a43.75,43.75,0,0,0,0-87.5Z"/></g></g></svg>