<svg xmlns="http://www.w3.org/2000/svg" viewBox="0 0 256 247.45"><defs><style>.cls-1{fill:#fff;}</style></defs><title>rain_heavy</title><g id="Layer_2" data-name="Layer 2"><g id="Layer_1-2" data-name="Layer 1"><path class="cls-1" d="M200,48a56.07,56.07,0,0,0-17.38,2.76A64,64,0,0,0,56,64c0,.23,0,.45,0,.68A48,48,0,1,0,48,160h4.8A19.84,19.84,0,0,1,55,146.5c3.73-6.61,18.55-16.23,27-21.38l8.75-5.3c4.34-6.57,18.41-15.7,26.61-20.66l12.19-7.39,0,14.25c0,6.87-.31,17.42-1.73,25.46,6.17-5.35,15.06-11,20.93-14.61L161,109.49l0,14.25c0,6.87-.31,17.42-1.73,25.46,6.17-5.36,15.05-11,20.93-14.61l12.18-7.38,0,14.24c0,5-.17,12-.81,18.55H200a56,56,0,0,0,0-112Z"/><path class="cls-1" d="M124.68,185.86a12,12,0,0,0,20.9,11.82c3.26-5.77,3.33-30.28,3.33-30.28S127.94,180.1,124.68,185.86Z"/><path class="cls-1" d="M128.7,142.19a12,12,0,0,0,4.54,16.35c.42.23.85.43,1.28.62l.41.15c.31.12.63.22.94.31l.44.12a11.7,11.7,0,0,0,1.15.23,13.53,13.53,0,0,0,1.67.12,12.25,12.25,0,0,0,2.35-.25l.52-.11c.28-.07.55-.15.82-.24l.59-.2c.25-.09.49-.2.73-.31l.63-.31c.22-.12.44-.24.65-.37s.43-.28.64-.42.38-.27.56-.42.43-.37.64-.56.32-.28.47-.44.44-.49.66-.75.23-.26.34-.41a11.7,11.7,0,0,0,.86-1.3c3.26-5.77,3.33-30.28,3.33-30.28S132,136.42,128.7,142.19Z"/><path class="cls-1" d="M160,159.9a12,12,0,0,0,4.54,16.35,11.86,11.86,0,0,0,5.89,1.56,12,12,0,0,0,10.46-6.1c3.26-5.77,3.33-30.28,3.33-30.28S163.3,154.13,160,159.9Z"/><path class="cls-1" d="M93.34,168.15a12,12,0,0,0,4.55,16.35,11.86,11.86,0,0,0,5.89,1.56,12,12,0,0,0,10.46-6.1c3.26-5.77,3.33-30.28,3.33-30.28S96.61,162.38,93.34,168.15Z"/><path class="cls-1" d="M156,203.58a12,12,0,1,0,20.9,11.81c3.26-5.77,3.33-30.28,3.33-30.28S159.28,197.81,156,203.58Z"/><path class="cls-1" d="M89.33,211.83a12,12,0,1,0,20.89,11.81c3.26-5.77,3.33-30.28,3.33-30.28S92.59,206.06,89.33,211.83Z"/><path class="cls-1" d="M120.67,229.54a12,12,0,1,0,20.89,11.81c3.26-5.76,3.33-30.28,3.33-30.28S123.93,223.77,120.67,229.54Z"/><path class="cls-1" d="M58,194.11a12,12,0,1,0,20.89,11.81c3.26-5.77,3.34-30.28,3.34-30.28S61.25,188.34,58,194.11Z"/><path class="cls-1" d="M97.36,124.47a12,12,0,1,0,20.89,11.81c3.26-5.77,3.33-30.28,3.33-30.28S100.62,118.7,97.36,124.47Z"/><path class="cls-1" d="M62,150.43a12,12,0,0,0,4.55,16.35,11.86,11.86,0,0,0,5.89,1.56,12,12,0,0,0,10.46-6.1c3.26-5.77,3.33-30.28,3.33-30.28S65.27,144.66,62,150.43Z"/></g></g></svg>