<svg xmlns="http://www.w3.org/2000/svg" viewBox="0 0 289.01 326.04"><defs><style>.cls-1{fill:#a7a9ac;}.cls-2{fill:#fff;}</style></defs><title>rain_moderate_night</title><g id="Layer_2" data-name="Layer 2"><g id="Layer_1-2" data-name="Layer 1"><path class="cls-1" d="M92.05,0a119.66,119.66,0,0,1,38,87.58,120,120,0,0,1-120,120c-3.37,0-6.71-.15-10-.42A120,120,0,1,0,92.05,0Z"/><path class="cls-2" d="M125.31,156.6a58.17,58.17,0,0,1,42.2-48,50,50,0,0,0-90.75,29c0,.18,0,.35,0,.53a38.07,38.07,0,0,0-6.27-.53,37.5,37.5,0,0,0,0,75H82.25a45.45,45.45,0,0,1,43.06-56Z"/><path class="cls-2" d="M245.26,152.08a43.48,43.48,0,0,0-13.57,2.16,50,50,0,0,0-98.93,10.34c0,.18,0,.35,0,.53a38.07,38.07,0,0,0-6.27-.53,37.5,37.5,0,0,0,0,75H245.26a43.75,43.75,0,0,0,0-87.5Z"/><path class="cls-2" d="M167.41,276.36a9.6,9.6,0,0,0,19.2,0c0-5.3-9.6-22.4-9.6-22.4S167.41,271.06,167.41,276.36Zm12.8.06a3.2,3.2,0,0,1-6.4,0c.13-1.28,1.38-4.5,3.2-8.44C178.84,271.92,180.09,275.14,180.21,276.42Z"/><path class="cls-2" d="M196.21,276.36a9.6,9.6,0,0,0,19.2,0c0-5.3-9.6-22.4-9.6-22.4S196.21,271.06,196.21,276.36Zm12.8.06a3.2,3.2,0,0,1-6.4,0c.13-1.28,1.38-4.5,3.2-8.44C207.64,271.92,208.89,275.14,209,276.42Z"/><path class="cls-2" d="M138.61,276.36a9.6,9.6,0,0,0,19.2,0c0-5.3-9.6-22.4-9.6-22.4S138.61,271.06,138.61,276.36Zm12.8.06a3.2,3.2,0,0,1-6.4,0c.13-1.28,1.38-4.5,3.2-8.44C150,271.92,151.29,275.14,151.41,276.42Z"/><path class="cls-2" d="M186,316.44a9.6,9.6,0,1,0,19.2,0c0-5.3-9.6-22.4-9.6-22.4S186,311.14,186,316.44Zm12.8.05a3.2,3.2,0,0,1-6.4,0c.13-1.27,1.38-4.49,3.2-8.43C197.44,312,198.69,315.21,198.81,316.49Z"/><path class="cls-2" d="M214.81,316.44a9.6,9.6,0,1,0,19.2,0c0-5.3-9.6-22.4-9.6-22.4S214.81,311.14,214.81,316.44Zm12.8.05a3.2,3.2,0,0,1-6.4,0c.13-1.27,1.38-4.49,3.2-8.43C226.24,312,227.49,315.21,227.61,316.49Z"/><path class="cls-2" d="M157.21,316.44a9.6,9.6,0,1,0,19.2,0c0-5.3-9.6-22.4-9.6-22.4S157.21,311.14,157.21,316.44Zm12.8.05a3.2,3.2,0,0,1-6.4,0c.13-1.27,1.38-4.49,3.2-8.43C168.64,312,169.89,315.21,170,316.49Z"/><path class="cls-2" d="M226.63,275.86a9.6,9.6,0,1,0,19.2,0c0-5.31-9.6-22.4-9.6-22.4S226.63,270.55,226.63,275.86Zm12.8.05a3.2,3.2,0,0,1-6.4,0c.12-1.27,1.37-4.49,3.2-8.43C238.06,271.42,239.31,274.63,239.43,275.91Z"/></g></g></svg>