<svg xmlns="http://www.w3.org/2000/svg" viewBox="0 0 276.02 310.71"><defs><style>.cls-1{fill:#a7a9ac;}.cls-2{fill:#fff;}</style></defs><title>rain_slight_night</title><g id="Layer_2" data-name="Layer 2"><g id="Layer_1-2" data-name="Layer 1"><path class="cls-1" d="M92.05,0a119.66,119.66,0,0,1,38,87.58,120,120,0,0,1-120,120c-3.37,0-6.71-.15-10-.42A120,120,0,1,0,92.05,0Z"/><path class="cls-2" d="M241,187.5a34.84,34.84,0,0,0-10.86,1.73A40,40,0,0,0,151,197.5c0,.14,0,.28,0,.42a30.61,30.61,0,0,0-5-.42,30,30,0,0,0,0,60h95a35,35,0,0,0,0-70Z"/><path class="cls-2" d="M186.42,301.11a9.6,9.6,0,1,0,19.2,0c0-5.3-9.6-22.4-9.6-22.4S186.42,295.81,186.42,301.11Zm12.8.06a3.2,3.2,0,0,1-6.4,0c.12-1.28,1.37-4.49,3.2-8.44C197.85,296.67,199.1,299.89,199.22,301.17Z"/><path class="cls-2" d="M215.22,301.11a9.6,9.6,0,0,0,19.2,0c0-5.3-9.6-22.4-9.6-22.4S215.22,295.81,215.22,301.11Zm12.8.06a3.2,3.2,0,0,1-6.4,0c.12-1.28,1.37-4.49,3.2-8.44C226.65,296.67,227.9,299.89,228,301.17Z"/><path class="cls-2" d="M157.62,301.11a9.6,9.6,0,0,0,19.2,0c0-5.3-9.6-22.4-9.6-22.4S157.62,295.81,157.62,301.11Zm12.8.06a3.2,3.2,0,0,1-6.4,0c.12-1.28,1.37-4.49,3.2-8.44C169.05,296.67,170.3,299.89,170.42,301.17Z"/></g></g></svg>