<svg xmlns="http://www.w3.org/2000/svg" viewBox="0 0 256 334.42"><defs><style>.cls-1{fill:#fbb040;}.cls-2{fill:#fff;}</style></defs><title>rain_moderate_day</title><g id="Layer_2" data-name="Layer 2"><g id="Layer_1-2" data-name="Layer 1"><path class="cls-1" d="M128,56a4,4,0,0,0,4-4V4a4,4,0,0,0-8,0V52A4,4,0,0,0,128,56Z"/><path class="cls-1" d="M200,128a4,4,0,0,0,4,4h48a4,4,0,0,0,0-8H204A4,4,0,0,0,200,128Z"/><path class="cls-1" d="M71.43,77.09a4,4,0,0,0,5.66-5.66L43.15,37.49a4,4,0,0,0-5.66,5.66Z"/><path class="cls-1" d="M184.57,77.09l33.94-33.94a4,4,0,1,0-5.66-5.66L178.91,71.43a4,4,0,0,0,5.66,5.66Z"/><path class="cls-1" d="M93.75,88A58.13,58.13,0,0,1,141,112.41l2.12,3a57.71,57.71,0,0,1,48.64,17.66c.13-1.66.22-3.35.22-5.05A64,64,0,0,0,75.93,90.81,57.71,57.71,0,0,1,93.75,88Z"/><path class="cls-2" d="M92.3,165a58.17,58.17,0,0,1,42.2-48,50,50,0,0,0-90.75,29c0,.18,0,.35,0,.53A37.5,37.5,0,1,0,37.5,221H49.24A45.45,45.45,0,0,1,92.3,165Z"/><path class="cls-2" d="M212.25,160.5a43.59,43.59,0,0,0-13.58,2.16A50,50,0,0,0,99.75,173c0,.18,0,.35,0,.53A37.5,37.5,0,1,0,93.5,248H212.25a43.75,43.75,0,0,0,0-87.5Z"/><path class="cls-2" d="M137.61,284.74a9.6,9.6,0,0,0,19.2,0c0-5.3-9.6-22.4-9.6-22.4S137.61,279.44,137.61,284.74Zm12.8.05a3.2,3.2,0,0,1-6.4,0c.12-1.27,1.37-4.49,3.2-8.43C149,280.3,150.29,283.52,150.41,284.79Z"/><path class="cls-2" d="M166.41,284.74a9.6,9.6,0,0,0,19.2,0c0-5.3-9.6-22.4-9.6-22.4S166.41,279.44,166.41,284.74Zm12.8.05a3.2,3.2,0,0,1-6.4,0c.12-1.27,1.37-4.49,3.2-8.43C177.84,280.3,179.09,283.52,179.21,284.79Z"/><path class="cls-2" d="M108.81,284.74a9.6,9.6,0,0,0,19.2,0c0-5.3-9.6-22.4-9.6-22.4S108.81,279.44,108.81,284.74Zm12.8.05a3.2,3.2,0,0,1-6.4,0c.12-1.27,1.37-4.49,3.2-8.43C120.24,280.3,121.49,283.52,121.61,284.79Z"/><path class="cls-2" d="M156.21,324.82a9.6,9.6,0,1,0,19.2,0c0-5.31-9.6-22.4-9.6-22.4S156.21,319.51,156.21,324.82Zm12.8.05a3.2,3.2,0,0,1-6.4,0c.12-1.28,1.37-4.49,3.2-8.43C167.64,320.38,168.89,323.59,169,324.87Z"/><path class="cls-2" d="M185,324.82a9.6,9.6,0,1,0,19.2,0c0-5.31-9.6-22.4-9.6-22.4S185,319.51,185,324.82Zm12.8.05a3.2,3.2,0,0,1-6.4,0c.12-1.28,1.37-4.49,3.2-8.43C196.44,320.38,197.69,323.59,197.81,324.87Z"/><path class="cls-2" d="M127.41,324.82a9.6,9.6,0,0,0,19.2,0c0-5.31-9.6-22.4-9.6-22.4S127.41,319.51,127.41,324.82Zm12.8.05a3.2,3.2,0,0,1-6.4,0c.12-1.28,1.37-4.49,3.2-8.43C138.84,320.38,140.09,323.59,140.21,324.87Z"/><path class="cls-2" d="M196.82,284.23a9.6,9.6,0,0,0,19.2,0c0-5.3-9.6-22.4-9.6-22.4S196.82,278.93,196.82,284.23Zm12.8.06a3.2,3.2,0,0,1-6.4,0c.12-1.28,1.37-4.49,3.2-8.44C208.25,279.8,209.5,283,209.62,284.29Z"/></g></g></svg>