<svg xmlns="http://www.w3.org/2000/svg" viewBox="0 0 160 90.64"><defs><style>.cls-1{fill:#fff;}</style></defs><title>snow_grains</title><g id="Layer_2" data-name="Layer 2"><g id="Layer_1-2" data-name="Layer 1"><path class="cls-1" d="M36,42.11a4,4,0,0,0,1.46-5.47L30.93,25.32H44a4,4,0,0,0,0-8H30.93L37.46,6a4,4,0,0,0-6.92-4L24,13.32,17.46,2a4,4,0,0,0-6.92,4l6.53,11.32H4a4,4,0,0,0,0,8H17.07L10.54,36.64a4,4,0,1,0,6.92,4L24,29.32l6.54,11.32A4,4,0,0,0,36,42.11Z"/><path class="cls-1" d="M92,42.11a4,4,0,0,0,1.46-5.47L86.93,25.32H100a4,4,0,0,0,0-8H86.93L93.46,6a4,4,0,1,0-6.92-4L80,13.32,73.46,2a4,4,0,0,0-6.92,4l6.53,11.32H60a4,4,0,0,0,0,8H73.07L66.54,36.64a4,4,0,1,0,6.92,4L80,29.32l6.54,11.32A4,4,0,0,0,92,42.11Z"/><path class="cls-1" d="M156,17.32H142.93L149.46,6a4,4,0,0,0-6.92-4L136,13.32,129.46,2a4,4,0,0,0-6.92,4l6.53,11.32H116a4,4,0,0,0,0,8h13.07l-6.53,11.32a4,4,0,1,0,6.92,4L136,29.32l6.54,11.32a4,4,0,1,0,6.92-4l-6.53-11.32H156a4,4,0,0,0,0-8Z"/><path class="cls-1" d="M72,65.32H58.93L65.46,54a4,4,0,1,0-6.92-4L52,61.32,45.46,50a4,4,0,0,0-6.92,4l6.53,11.32H32a4,4,0,0,0,0,8H45.07L38.54,84.64a4,4,0,1,0,6.92,4L52,77.32l6.54,11.32a4,4,0,1,0,6.92-4L58.93,73.32H72a4,4,0,0,0,0-8Z"/><path class="cls-1" d="M128,65.32H114.93L121.46,54a4,4,0,1,0-6.92-4L108,61.32,101.46,50a4,4,0,0,0-6.92,4l6.53,11.32H88a4,4,0,0,0,0,8h13.07L94.54,84.64a4,4,0,1,0,6.92,4L108,77.32l6.54,11.32a4,4,0,1,0,6.92-4l-6.53-11.32H128a4,4,0,0,0,0-8Z"/></g></g></svg>