<svg xmlns="http://www.w3.org/2000/svg" viewBox="0 0 256 306.96"><defs><style>.cls-1{fill:#fff;}</style></defs><title>heavy_snow</title><g id="Layer_2" data-name="Layer 2"><g id="Layer_1-2" data-name="Layer 1"><path class="cls-1" d="M200,48a56.07,56.07,0,0,0-17.38,2.76A64,64,0,0,0,56,64c0,.23,0,.45,0,.68A48,48,0,1,0,48,160H200a56,56,0,0,0,0-112Z"/><path class="cls-1" d="M88,211.46A4,4,0,0,0,89.46,206l-6.53-11.32H96a4,4,0,0,0,0-8H82.93l6.53-11.32a4,4,0,1,0-6.92-4L76,182.68l-6.54-11.32a4,4,0,1,0-6.92,4l6.53,11.32H56a4,4,0,0,0,0,8H69.07L62.54,206a4,4,0,0,0,6.92,4L76,198.68,82.54,210A4,4,0,0,0,88,211.46Z"/><path class="cls-1" d="M144,211.46a4,4,0,0,0,1.46-5.46l-6.53-11.32H152a4,4,0,0,0,0-8H138.93l6.53-11.32a4,4,0,1,0-6.92-4L132,182.68l-6.54-11.32a4,4,0,1,0-6.92,4l6.53,11.32H112a4,4,0,0,0,0,8h13.07L118.54,206a4,4,0,0,0,6.92,4L132,198.68,138.54,210A4,4,0,0,0,144,211.46Z"/><path class="cls-1" d="M208,186.68H194.93l6.53-11.32a4,4,0,1,0-6.92-4L188,182.68l-6.54-11.32a4,4,0,1,0-6.92,4l6.53,11.32H168a4,4,0,0,0,0,8h13.07L174.54,206a4,4,0,0,0,6.92,4L188,198.68,194.54,210a4,4,0,0,0,6.92-4l-6.53-11.32H208a4,4,0,0,0,0-8Z"/><path class="cls-1" d="M124,234.68H110.93l6.53-11.32a4,4,0,1,0-6.92-4L104,230.68l-6.54-11.32a4,4,0,1,0-6.92,4l6.53,11.32H84a4,4,0,0,0,0,8H97.07L90.54,254a4,4,0,1,0,6.92,4L104,246.68,110.54,258a4,4,0,1,0,6.92-4l-6.53-11.32H124a4,4,0,0,0,0-8Z"/><path class="cls-1" d="M180,234.68H166.93l6.53-11.32a4,4,0,1,0-6.92-4L160,230.68l-6.54-11.32a4,4,0,1,0-6.92,4l6.53,11.32H140a4,4,0,0,0,0,8h13.07L146.54,254a4,4,0,1,0,6.92,4L160,246.68,166.54,258a4,4,0,1,0,6.92-4l-6.53-11.32H180a4,4,0,0,0,0-8Z"/><path class="cls-1" d="M150.41,281.63H137.34l6.54-11.32a4,4,0,0,0-6.93-4l-6.54,11.32-6.53-11.32a4,4,0,0,0-6.93,4l6.53,11.32H110.41a4,4,0,1,0,0,8h13.07L117,301a4,4,0,0,0,6.93,4l6.53-11.33L137,305a4,4,0,0,0,6.93-4l-6.54-11.33h13.07a4,4,0,0,0,0-8Z"/></g></g></svg>