<svg xmlns="http://www.w3.org/2000/svg" viewBox="0 0 256 208"><defs><style>.cls-1{fill:#fff;}</style></defs><title>snow_showers_light</title><g id="Layer_2" data-name="Layer 2"><g id="Layer_1-2" data-name="Layer 1"><path class="cls-1" d="M200,48a56.07,56.07,0,0,0-17.38,2.76A64,64,0,0,0,56,64c0,.23,0,.45,0,.68A48,48,0,1,0,48,160H200a56,56,0,0,0,0-112Z"/><path class="cls-1" d="M84,207.46A4,4,0,0,0,85.46,202l-6.53-11.32H92a4,4,0,0,0,0-8H78.93l6.53-11.32a4,4,0,1,0-6.92-4L72,178.68l-6.54-11.32a4,4,0,1,0-6.92,4l6.53,11.32H52a4,4,0,0,0,0,8H65.07L58.54,202a4,4,0,0,0,6.92,4L72,194.68,78.54,206A4,4,0,0,0,84,207.46Z"/><path class="cls-1" d="M140,207.46a4,4,0,0,0,1.46-5.46l-6.53-11.32H148a4,4,0,0,0,0-8H134.93l6.53-11.32a4,4,0,1,0-6.92-4L128,178.68l-6.54-11.32a4,4,0,1,0-6.92,4l6.53,11.32H108a4,4,0,0,0,0,8h13.07L114.54,202a4,4,0,0,0,6.92,4L128,194.68,134.54,206A4,4,0,0,0,140,207.46Z"/><path class="cls-1" d="M204,182.68H190.93l6.53-11.32a4,4,0,1,0-6.92-4L184,178.68l-6.54-11.32a4,4,0,1,0-6.92,4l6.53,11.32H164a4,4,0,0,0,0,8h13.07L170.54,202a4,4,0,0,0,6.92,4L184,194.68,190.54,206a4,4,0,0,0,6.92-4l-6.53-11.32H204a4,4,0,0,0,0-8Z"/></g></g></svg>