<svg xmlns="http://www.w3.org/2000/svg" viewBox="0 0 7.36 6.01"><defs><style>.cls-1{fill:#ffcc07;}.cls-2{fill:#fff;}</style></defs><title>Asset 1</title><g id="Layer_2" data-name="Layer 2"><g id="Layer_1-2" data-name="Layer 1"><g id="Layer_2-2" data-name="Layer 2"><g id="Layer_1-2-2" data-name="Layer 1-2"><path class="cls-1" d="M3.68,1.69a2,2,0,0,0-2,2h4a2,2,0,0,0-2-2Z"/><path class="cls-1" d="M3.68,1.37a.21.21,0,0,1-.21-.21h0V.21A.21.21,0,0,1,3.68,0h0A.22.22,0,0,1,3.9.21v.94a.22.22,0,0,1-.22.22Z"/><path class="cls-1" d="M1.89,2.11A.19.19,0,0,1,1.74,2l-.66-.66a.2.2,0,0,1,0-.28l0,0a.2.2,0,0,1,.28,0l0,0,.62.7A.21.21,0,0,1,2,2,.2.2,0,0,1,1.89,2.11Z"/><path class="cls-1" d="M5.47,2.11A.19.19,0,0,1,5.32,2a.2.2,0,0,1,0-.28l0,0L6,1.08a.21.21,0,0,1,.3,0h0a.22.22,0,0,1,0,.3L5.62,2A.19.19,0,0,1,5.47,2.11Z"/><path class="cls-2" d="M7.15,3.9H.21A.22.22,0,0,1,0,3.68a.21.21,0,0,1,.21-.21H7.15a.21.21,0,0,1,.21.21h0a.21.21,0,0,1-.2.22Z"/><path class="cls-2" d="M3.68,6a.21.21,0,0,1-.21-.21h0V4.52a.21.21,0,0,1,.21-.21h0a.22.22,0,0,1,.22.21v1.3A.21.21,0,0,1,3.68,6Z"/><path class="cls-2" d="M3.68,6a.2.2,0,0,1-.15,0,.22.22,0,0,1,0-.3L4,5.21a.22.22,0,0,1,.3,0,.2.2,0,0,1,0,.28l0,0L3.83,6A.2.2,0,0,1,3.68,6Z"/><path class="cls-2" d="M3.68,6a.2.2,0,0,1-.15,0,.22.22,0,0,1,0-.3L4,5.21a.22.22,0,0,1,.3,0,.2.2,0,0,1,0,.28l0,0L3.83,6A.2.2,0,0,1,3.68,6Z"/><path class="cls-2" d="M3.68,6a.2.2,0,0,1-.15,0l-.46-.46a.22.22,0,0,1,0-.3.23.23,0,0,1,.31,0l.45.46a.2.2,0,0,1,0,.28l0,0A.2.2,0,0,1,3.68,6Z"/></g></g></g></g></svg>