<svg xmlns="http://www.w3.org/2000/svg" viewBox="0 0 256 258.21"><defs><style>.cls-1{fill:#fff;}.cls-2{fill:#d1d3d4;}</style></defs><title>thuderstorm_heavy_hail</title><g id="Layer_2" data-name="Layer 2"><g id="Layer_1-2" data-name="Layer 1"><path class="cls-1" d="M200,48a56.07,56.07,0,0,0-17.38,2.76A64,64,0,0,0,56,64c0,.23,0,.45,0,.68A48,48,0,1,0,48,160H200a56,56,0,0,0,0-112Z"/><path class="cls-2" d="M228.13,96h-44l-16,70,10.8-1.8-8.8,59.8,50-74-13,1.95Z"/><path class="cls-1" d="M80.37,171.93a2,2,0,0,0-2.6,1.12l-32,80a2,2,0,0,0,1.11,2.6,1.91,1.91,0,0,0,.74.14,2,2,0,0,0,1.86-1.26l32-80A2,2,0,0,0,80.37,171.93Z"/><path class="cls-1" d="M96.65,185.22a8,8,0,1,0-4.46-10.4A8,8,0,0,0,96.65,185.22Z"/><path class="cls-1" d="M96.28,207.69a8,8,0,1,0-7.43,5A8,8,0,0,0,96.28,207.69Z"/><path class="cls-1" d="M81.05,224.21a8,8,0,1,0,4.46,10.4A8,8,0,0,0,81.05,224.21Z"/><path class="cls-1" d="M128.37,171.93a2,2,0,0,0-2.6,1.12l-32,80a2,2,0,0,0,1.11,2.6,1.91,1.91,0,0,0,.74.14,2,2,0,0,0,1.86-1.26l32-80A2,2,0,0,0,128.37,171.93Z"/><path class="cls-1" d="M150.59,170.36a8,8,0,1,0,4.46,10.4A8,8,0,0,0,150.59,170.36Z"/><path class="cls-1" d="M140.94,194.5a8,8,0,1,0,4.45,10.4A8,8,0,0,0,140.94,194.5Z"/><path class="cls-1" d="M121.62,242.78a8,8,0,1,0,4.46,10.4A8,8,0,0,0,121.62,242.78Z"/><path class="cls-1" d="M131.28,218.64a8,8,0,1,0-5.94,14.86,7.9,7.9,0,0,0,3,.57,8,8,0,0,0,3-15.43Z"/><path class="cls-1" d="M26.74,240a8,8,0,1,0,4.45,10.4A8,8,0,0,0,26.74,240Z"/><path class="cls-1" d="M36,216.79a8,8,0,1,0,4.46,10.4A8,8,0,0,0,36,216.79Z"/><path class="cls-1" d="M48.65,185.22a8,8,0,1,0-4.46-10.4A8,8,0,0,0,48.65,185.22Z"/><path class="cls-1" d="M49.76,204a8,8,0,1,0-7.43,5A8,8,0,0,0,49.76,204Z"/></g></g></svg>