<svg xmlns="http://www.w3.org/2000/svg" viewBox="0 0 256 255.27"><defs><style>.cls-1{fill:#fff;}.cls-2{fill:#d1d3d4;}</style></defs><title>thunderstorm_slight_hail</title><g id="Layer_2" data-name="Layer 2"><g id="Layer_1-2" data-name="Layer 1"><path class="cls-1" d="M200,48a56.07,56.07,0,0,0-17.38,2.76A64,64,0,0,0,56,64c0,.23,0,.45,0,.68A48,48,0,1,0,48,160H200a56,56,0,0,0,0-112Z"/><path class="cls-2" d="M223.13,96h-44l-16,70,10.8-1.8-8.8,59.8,50-74-13,1.95Z"/><path class="cls-1" d="M83.8,187.44A8,8,0,1,0,79.34,177,8,8,0,0,0,83.8,187.44Z"/><path class="cls-1" d="M83.43,209.91a8,8,0,1,0-7.43,5A8,8,0,0,0,83.43,209.91Z"/><path class="cls-1" d="M115.52,174.15a2,2,0,0,0-2.58,1.08L81.13,252.61a1.92,1.92,0,0,0,1.1,2.52,2.15,2.15,0,0,0,.74.14,2,2,0,0,0,1.85-1.22l31.81-77.39A1.91,1.91,0,0,0,115.52,174.15Z"/><path class="cls-1" d="M137.74,172.58A8,8,0,1,0,142.2,183,8,8,0,0,0,137.74,172.58Z"/><path class="cls-1" d="M128.09,196.72a8,8,0,1,0,4.45,10.4A8,8,0,0,0,128.09,196.72Z"/><path class="cls-1" d="M118.43,220.86a8,8,0,1,0-5.94,14.86,7.9,7.9,0,0,0,3,.57,8,8,0,0,0,3-15.43Z"/></g></g></svg>